HIERARCHY
ROOT Hips
{
  OFFSET 28.0269 98.4805 -42.6318
  CHANNELS 6 Xposition Yposition Zposition Zrotation Xrotation Yrotation
  JOINT spine
  {
    OFFSET 0 8.30104 0.477351
    CHANNELS 3 Zrotation Xrotation Yrotation
    JOINT spine1
    {
      OFFSET 0 10.4565 0
      CHANNELS 3 Zrotation Xrotation Yrotation
      JOINT spine2
      {
        OFFSET 0 10.0192 0
        CHANNELS 3 Zrotation Xrotation Yrotation
        JOINT Neck
        {
          OFFSET 0 25.7235 1.22641
          CHANNELS 3 Zrotation Xrotation Yrotation
          JOINT Head
          {
            OFFSET 0 7.77175 0
            CHANNELS 3 Zrotation Xrotation Yrotation
            End Site
            {
              OFFSET 0 18.812 -6.20394
            }
          }
        }
        JOINT RightShoulder
        {
          OFFSET -4.2188 10.82 -0.587439
          CHANNELS 3 Zrotation Xrotation Yrotation
          JOINT RightArm
          {
            OFFSET 0 14.1914 0
            CHANNELS 3 Zrotation Xrotation Yrotation
            JOINT RightArmRoll
            {
              OFFSET 0 7.16408 0
              CHANNELS 3 Zrotation Xrotation Yrotation
              JOINT RightForeArm
              {
                OFFSET 0 20.8665 0
                CHANNELS 3 Zrotation Xrotation Yrotation
                JOINT RightForeArmRoll
                {
                  OFFSET 0 8.03921 0
                  CHANNELS 3 Zrotation Xrotation Yrotation
                  JOINT RightHand
                  {
                    OFFSET 0 16.133 0
                    CHANNELS 3 Zrotation Xrotation Yrotation
                    End Site
                    {
                      OFFSET 0 0 0
                    }
                  }
                }
              }
            }
          }
        }
        JOINT LeftShoulder
        {
          OFFSET 4.2188 10.82 -0.587439
          CHANNELS 3 Zrotation Xrotation Yrotation
          JOINT LeftArm
          {
            OFFSET 0 14.1914 0
            CHANNELS 3 Zrotation Xrotation Yrotation
            JOINT LeftArmRoll
            {
              OFFSET 0 7.16408 0
              CHANNELS 3 Zrotation Xrotation Yrotation
              JOINT LeftForeArm
              {
                OFFSET 0 20.8665 0
                CHANNELS 3 Zrotation Xrotation Yrotation
                JOINT LeftForeArmRoll
                {
                  OFFSET 0 8.03921 0
                  CHANNELS 3 Zrotation Xrotation Yrotation
                  JOINT LeftHand
                  {
                    OFFSET 0 16.133 0
                    CHANNELS 3 Zrotation Xrotation Yrotation
                    End Site
                    {
                      OFFSET 0 0 0
                    }
                  }
                }
              }
            }
          }
        }
      }
    }
  }
  JOINT RightUpLeg
  {
    OFFSET -7.35773 -1.34921 -1.13182
    CHANNELS 3 Zrotation Xrotation Yrotation
    JOINT RightUpLegRoll
    {
      OFFSET 0 18.9168 0
      CHANNELS 3 Zrotation Xrotation Yrotation
      JOINT RightLeg
      {
        OFFSET 0 -23.4256 0
        CHANNELS 3 Zrotation Xrotation Yrotation
        JOINT RightLegRoll
        {
          OFFSET 0 23.5023 0
          CHANNELS 3 Zrotation Xrotation Yrotation
          JOINT RightFoot
          {
            OFFSET 0 19.5617 0
            CHANNELS 3 Zrotation Xrotation Yrotation
            JOINT RightToeBase
            {
              OFFSET 0 16.3526 0
              CHANNELS 3 Zrotation Xrotation Yrotation
              End Site
              {
                OFFSET 0.00693125 7.91944 -0.912837
              }
            }
          }
        }
      }
    }
  }
  JOINT LeftUpLeg
  {
    OFFSET 7.35773 -1.34921 -1.13182
    CHANNELS 3 Zrotation Xrotation Yrotation
    JOINT LeftUpLegRoll
    {
      OFFSET 0 18.9169 0
      CHANNELS 3 Zrotation Xrotation Yrotation
      JOINT LeftLeg
      {
        OFFSET 0 23.4255 0
        CHANNELS 3 Zrotation Xrotation Yrotation
        JOINT LeftLegRoll
        {
          OFFSET 0 23.7195 0
          CHANNELS 3 Zrotation Xrotation Yrotation
          JOINT LeftFoot
          {
            OFFSET 0 19.3444 0
            CHANNELS 3 Zrotation Xrotation Yrotation
            JOINT LeftToeBase
            {
              OFFSET 0 16.3526 0
              CHANNELS 3 Zrotation Xrotation Yrotation
              End Site
              {
                OFFSET -0.0310629 7.91943 -0.912837
              }
            }
          }
        }
      }
    }
  }
}
MOTION
Frames: 12
Frame Time: 0.00208333
28.0026 119.46 -27.1227 -0.431626 -2.71754 8.32113 0.181439 -0.651814 0.252846 0.363594 2.69994 0.484715 0.358183 4.34497 0.479018 1.67408 14.1868 -4.98471 -0.865515 -8.9418 -4.66761 68.7538 -2.63807 -2.5179 96.6581 16.9327 22.3692 -5.63934e-008 -1.00211e-005 -2.10351e-005 12.5615 0.807603 0.0636108 -7.45556e-006 1.03967e-006 -3.01008 8.02913 -4.95145 0.69768 -62.5237 2.04789 -0.695731 -100.035 10.4596 -11.5948 9.93923e-016 3.18055e-015 -0 -12.6565 15.4271 2.30383 4.79855e-006 -8.8849e-007 3.0081 -8.02905 -4.95146 -0.697682 174.293 -1.42233 2.33375 180 7.01525e-015 178.83 176.334 8.91467 179.695 1.85447e-006 -5.90435e-006 0.105053 -18.0636 67.2525 18.9335 8.13649 25.2326 -3.48774 -170.09 3.28138 -3.92642 4.54188e-006 -4.6773e-006 -1.23636 -4.65586 -13.8028 0.167437 -8.91502e-007 -2.57141e-006 -0.207134 17.6734 66.6297 -18.4581 -8.13649 25.2326 3.48774 
28.0013 119.359 -27.1558 -0.467543 -2.6786 8.31985 0.178346 -0.652285 0.254463 0.357407 2.69899 0.488414 0.351944 4.34402 0.482823 1.79853 14.1601 -5.01458 -0.9527 -8.96402 -4.6792 68.8613 -2.62346 -2.51966 96.5092 16.9503 22.2964 -5.63934e-008 -1.00211e-005 -2.10351e-005 12.6517 0.897585 0.0487721 -7.45556e-006 1.03967e-006 -3.01002 8.02913 -4.95145 0.69768 -62.4724 2.04195 -0.699694 -100.025 10.4556 -11.5729 -5.76476e-015 7.95139e-016 -3.18055e-015 -12.6654 15.5323 2.31919 4.79855e-006 -8.8849e-007 3.0081 -8.02905 -4.95146 -0.697682 174.33 -1.35132 2.30524 180 7.01525e-015 178.833 176.33 8.89053 179.696 1.85447e-006 -5.90435e-006 0.104843 -18.072 67.2656 18.9434 8.13649 25.2326 -3.48774 -170.046 3.35052 -3.92755 4.54188e-006 -4.6773e-006 -1.23618 -4.62544 -13.8012 0.171557 -8.91502e-007 -2.57141e-006 -0.206436 17.6673 66.6215 -18.4505 -8.13649 25.2326 3.48774 
27.9593 119.202 -27.1985 -0.503656 -2.64066 8.31816 0.175439 -0.652263 0.256179 0.351588 2.69903 0.492262 0.346073 4.34406 0.486772 1.92004 14.1307 -5.04361 -1.03849 -8.98656 -4.69054 68.9659 -2.60949 -2.52151 96.3637 16.9695 22.2227 -5.63934e-008 -1.00211e-005 -2.10351e-005 12.7411 0.988549 0.0336308 -7.45556e-006 1.03967e-006 -3.00995 8.02913 -4.95145 0.69768 -62.4214 2.03587 -0.703531 -100.017 10.4529 -11.5505 6.36111e-015 6.36111e-015 -0 -12.6742 15.6379 2.33459 4.79855e-006 -8.8849e-007 3.0081 -8.02905 -4.95146 -0.697682 174.366 -1.27929 2.27819 180 7.01526e-015 178.836 176.325 8.87088 179.697 1.85447e-006 -5.90435e-006 0.104717 -18.0805 67.2788 18.9534 8.13649 25.2326 -3.48774 -170.002 3.41982 -3.92956 4.54188e-006 -4.6773e-006 -1.23609 -4.59481 -13.8016 0.175668 -8.91502e-007 -2.57141e-006 -0.205762 17.6613 66.6133 -18.443 -8.13649 25.2326 3.48774 
27.9601 119.099 -27.2359 -0.539891 -2.6039 8.31591 0.172752 -0.651753 0.257985 0.346211 2.70004 0.496234 0.340642 4.34508 0.490837 2.03665 14.099 -5.07136 -1.12091 -9.00932 -4.70137 69.0657 -2.59639 -2.52338 96.2242 16.9905 22.1489 -5.63934e-008 -1.00211e-005 -2.10351e-005 12.8282 1.07934 0.018436 -7.45556e-006 1.03967e-006 -3.00989 8.02913 -4.95145 0.69768 -62.3713 2.02944 -0.707026 -100.009 10.4517 -11.5277 -6.75868e-015 -1.59028e-015 -3.18055e-015 -12.6826 15.7429 2.34991 4.79855e-006 -8.8849e-007 3.0081 -8.02905 -4.95146 -0.697682 174.401 -1.20637 2.25275 180 7.01527e-015 178.839 176.32 8.85607 179.699 1.85447e-006 -5.90435e-006 0.10468 -18.0892 67.2922 18.9635 8.13649 25.2326 -3.48774 -169.957 3.48866 -3.93272 4.54188e-006 -4.6773e-006 -1.2361 -4.5643 -13.8037 0.17973 -8.91502e-007 -2.57141e-006 -0.205113 17.6551 66.605 -18.4353 -8.13649 25.2326 3.48774 
27.9453 118.974 -27.274 -0.576175 -2.56846 8.31297 0.170322 -0.650757 0.259875 0.341346 2.70203 0.500302 0.335723 4.34707 0.49499 2.14636 14.0654 -5.09738 -1.19795 -9.0322 -4.71144 69.1585 -2.58439 -2.52523 96.0936 17.0136 22.0755 -5.63934e-008 -1.00211e-005 -2.10351e-005 12.9116 1.1688 0.00343644 -7.45556e-006 1.03967e-006 -3.00982 8.02913 -4.95145 0.69768 -62.3226 2.0224 -0.70996 -100.002 10.4523 -11.5049 -1.47101e-014 -3.18055e-015 -3.18055e-015 -12.6905 15.8467 2.36501 4.79855e-006 -8.8849e-007 3.0081 -8.02905 -4.95146 -0.697682 174.436 -1.13269 2.22903 180 7.01528e-015 178.841 176.312 8.84638 179.7 1.85447e-006 -5.90435e-006 0.104733 -18.0981 67.3059 18.974 8.13649 25.2326 -3.48774 -169.91 3.55641 -3.93729 4.54188e-006 -4.6773e-006 -1.23622 -4.53424 -13.8071 0.183704 -8.91502e-007 -2.57141e-006 -0.204496 17.6486 66.5962 -18.4274 -8.13649 25.2326 3.48774 
27.9369 118.845 -27.2836 -0.612435 -2.53453 8.30921 0.168185 -0.649281 0.261841 0.337065 2.70498 0.50444 0.331388 4.35002 0.499203 2.24721 14.0302 -5.12123 -1.26765 -9.05511 -4.72051 69.2424 -2.57372 -2.52698 95.9744 17.039 22.0032 -5.63934e-008 -1.00211e-005 -2.10351e-005 12.9899 1.25577 -0.0111187 -7.45556e-006 1.03967e-006 -3.00975 8.02913 -4.95145 0.69768 -62.2761 2.01453 -0.712116 -99.9942 10.4549 -11.4823 -9.93923e-016 -2.38542e-015 3.18055e-015 -12.6977 15.9483 2.37976 4.79855e-006 -8.8849e-007 3.0081 -8.02905 -4.95146 -0.697682 174.47 -1.05836 2.20717 180 7.01528e-015 178.844 176.304 8.84221 179.702 1.85447e-006 -5.90435e-006 0.104879 -18.1075 67.3202 18.9848 8.13649 25.2326 -3.48774 -169.863 3.62246 -3.94356 4.54188e-006 -4.6773e-006 -1.23646 -4.50497 -13.8116 0.187549 -8.91502e-007 -2.57141e-006 -0.203912 17.6416 66.5867 -18.419 -8.13649 25.2326 3.48774 
27.9194 118.708 -27.3277 -0.648598 -2.50224 8.30447 0.166376 -0.647329 0.263875 0.333439 2.70888 0.508621 0.327708 4.35392 0.503448 2.33722 13.9938 -5.14248 -1.328 -9.07795 -4.7283 69.3153 -2.56461 -2.52859 95.8695 17.067 21.9325 -5.63934e-008 -1.00211e-005 -2.10351e-005 13.0617 1.3391 -0.0249803 -7.45556e-006 1.03967e-006 -3.00968 8.02913 -4.95145 0.69768 -62.2322 2.00558 -0.713277 -99.9865 10.4598 -11.4602 -8.34896e-015 1.59028e-015 3.18055e-015 -12.7039 16.047 2.39403 4.79855e-006 -8.8849e-007 3.0081 -8.02905 -4.95146 -0.697682 174.503 -0.983523 2.18732 180 7.01529e-015 178.847 176.293 8.84386 179.704 1.85447e-006 -5.90435e-006 0.105123 -18.1174 67.3351 18.9961 8.13649 25.2326 -3.48774 -169.815 3.6862 -3.9518 4.54188e-006 -4.6773e-006 -1.23684 -4.47681 -13.8166 0.191226 -8.91502e-007 -2.57141e-006 -0.203367 17.6339 66.5763 -18.4099 -8.13649 25.2326 3.48774 
27.9041 118.575 -27.3792 -0.684589 -2.47178 8.29863 0.164931 -0.644905 0.265972 0.330541 2.71373 0.512818 0.324757 4.35877 0.507698 2.41443 13.9566 -5.16067 -1.37702 -9.10062 -4.73459 69.3752 -2.55729 -2.52999 95.7817 17.0977 21.8641 -5.63934e-008 -1.00211e-005 -2.10351e-005 13.1255 1.41763 -0.0378993 -7.45556e-006 1.03967e-006 -3.00961 8.02913 -4.95145 0.69768 -62.1914 1.99532 -0.713227 -99.9785 10.4672 -11.4387 -7.55382e-015 -2.38542e-015 -0 -12.709 16.1419 2.40767 4.79855e-006 -8.8849e-007 3.0081 -8.02905 -4.95146 -0.697682 174.534 -0.908299 2.16959 180 7.01529e-015 178.849 176.282 8.85168 179.706 1.85447e-006 -5.90435e-006 0.105467 -18.1278 67.3507 19.0081 8.13649 25.2326 -3.48774 -169.766 3.74701 -3.96227 4.54188e-006 -4.6773e-006 -1.23736 -4.45011 -13.8219 0.194695 -8.91502e-007 -2.57141e-006 -0.202864 17.6253 66.5646 -18.4001 -8.13649 25.2326 3.48774 
27.8576 118.398 -27.4131 -0.720337 -2.44331 8.29154 0.163885 -0.642013 0.268122 0.32844 2.71952 0.517004 0.322605 4.36456 0.511923 2.47687 13.9189 -5.17538 -1.41272 -9.12303 -4.73909 69.4201 -2.55199 -2.53111 95.7135 17.1316 21.7985 -5.63934e-008 -1.00211e-005 -2.10351e-005 13.1798 1.4902 -0.0496264 -7.45556e-006 1.03967e-006 -3.00954 8.02913 -4.95145 0.69768 -62.1545 1.98352 -0.711747 -99.97 10.4774 -11.4183 3.97569e-016 2.38542e-015 -0 -12.7128 16.2323 2.42055 4.79855e-006 -8.8849e-007 3.0081 -8.02905 -4.95146 -0.697682 174.565 -0.832813 2.15412 180 7.0153e-015 178.851 176.268 8.86598 179.708 1.85447e-006 -5.90435e-006 0.105913 -18.139 67.3673 19.0209 8.13649 25.2326 -3.48774 -169.717 3.80427 -3.97525 4.54188e-006 -4.6773e-006 -1.23804 -4.42518 -13.827 0.197916 -8.91502e-007 -2.57141e-006 -0.202407 17.6156 66.5514 -18.3894 -8.13649 25.2326 3.48774 
27.8622 118.27 -27.473 -0.755766 -2.41698 8.28306 0.163276 -0.638657 0.27032 0.32721 2.72624 0.521154 0.321324 4.37128 0.516097 2.52257 13.8813 -5.18616 -1.43312 -9.14508 -4.74158 69.4479 -2.54893 -2.53192 95.6679 17.1688 21.7365 -5.63934e-008 -1.00211e-005 -2.10351e-005 13.2234 1.55565 -0.0599121 -7.45556e-006 1.03967e-006 -3.00947 8.02913 -4.95145 0.69768 -62.122 1.96994 -0.708621 -99.9606 10.4906 -11.3991 1.33186e-014 5.56597e-015 -3.18055e-015 -12.7151 16.3173 2.43253 4.79855e-006 -8.8849e-007 3.0081 -8.02905 -4.95146 -0.697682 174.594 -0.757192 2.14105 180 7.0153e-015 178.854 176.253 8.8871 179.71 1.85447e-006 -5.90435e-006 0.106466 -18.151 67.3849 19.0345 8.13649 25.2326 -3.48774 -169.667 3.85736 -3.99101 4.54188e-006 -4.6773e-006 -1.23889 -4.40237 -13.8316 0.200849 -8.91502e-007 -2.57141e-006 -0.202001 17.6047 66.5364 -18.3776 -8.13649 25.2326 3.48774 
27.8261 118.08 -27.5085 -0.791572 -2.39215 8.27307 0.1631 -0.634942 0.272623 0.326847 2.73368 0.525339 0.32091 4.37872 0.520293 2.55381 13.8432 -5.19337 -1.44012 -9.16824 -4.74217 69.4611 -2.54774 -2.53239 95.6417 17.2094 21.677 -5.63934e-008 -1.00211e-005 -2.10351e-005 13.2579 1.61508 -0.0690925 -7.45556e-006 1.03967e-006 -3.00939 8.02913 -4.95145 0.69768 -62.0921 1.95394 -0.703733 -99.9522 10.507 -11.3805 5.36719e-015 3.18055e-015 3.18055e-015 -12.7159 16.3978 2.44375 4.79855e-006 -8.8849e-007 3.0081 -8.02905 -4.95146 -0.697682 174.623 -0.680603 2.12986 180 7.01531e-015 178.856 176.236 8.91441 179.713 1.85447e-006 -5.90435e-006 0.107132 -18.1639 67.4038 19.0492 8.13649 25.2326 -3.48774 -169.615 3.90708 -4.00969 4.54188e-006 -4.6773e-006 -1.23989 -4.3815 -13.8347 0.203499 -8.91502e-007 -2.57141e-006 -0.201609 17.5924 66.5197 -18.3646 -8.13649 25.2326 3.48774 
27.8513 117.939 -27.5341 -0.828347 -2.36818 8.26163 0.163315 -0.630939 0.275085 0.327264 2.74169 0.529645 0.321277 4.38673 0.524597 2.57457 13.8042 -5.19778 -1.43744 -9.19369 -4.74124 69.4639 -2.54785 -2.53262 95.6295 17.2531 21.6189 -5.63934e-008 -1.00211e-005 -2.10351e-005 13.2864 1.6706 -0.0777018 -7.45556e-006 1.03967e-006 -3.00932 8.02913 -4.95145 0.69768 -62.0628 1.93533 -0.697249 -99.9461 10.5263 -11.3618 7.35503e-015 1.59028e-015 -0 -12.7153 16.4754 2.45443 4.79855e-006 -8.8849e-007 3.0081 -8.02905 -4.95146 -0.697682 174.651 -0.602293 2.11999 180 7.01531e-015 178.858 176.218 8.94708 179.715 1.85447e-006 -5.90435e-006 0.107914 -18.1778 67.4238 19.0648 8.13649 25.2326 -3.48774 -169.561 3.95471 -4.03108 4.54188e-006 -4.6773e-006 -1.24103 -4.36205 -13.8361 0.205915 -8.91502e-007 -2.57141e-006 -0.201204 17.5792 66.5016 -18.3506 -8.13649 25.2326 3.48774 
